<svg xmlns="http://www.w3.org/2000/svg" viewBox="0 0 64 64">
  <defs>
    <linearGradient id="gold" x1="0%" y1="0%" x2="100%" y2="100%">
      <stop offset="0%" style="stop-color:#F5C518"/>
      <stop offset="100%" style="stop-color:#B8860B"/>
    </linearGradient>
  </defs>
  <circle cx="32" cy="32" r="30" fill="#0F1428" stroke="#F5C518" stroke-width="2"/>
  <!-- Copa -->
  <path d="M22 14 h20 v6 c0 8-4 14-10 16 c-6-2-10-8-10-16 Z" fill="url(#gold)" stroke="#fff" stroke-width="1"/>
  <rect x="26" y="36" width="12" height="4" rx="1" fill="url(#gold)"/>
  <rect x="24" y="40" width="16" height="3" rx="1" fill="#8B6914"/>
  <!-- Balón -->
  <circle cx="32" cy="52" r="9" fill="#F8FAFC" stroke="#CBD5E1" stroke-width="1"/>
  <path d="M32 43 L36 47 L35 52 L32 54 L29 52 L28 47 Z" fill="#0F172A"/>
  <path d="M32 43 L28 47 M32 43 L36 47 M28 47 L29 52 M36 47 L35 52" stroke="#0F172A" stroke-width=".8" fill="none"/>
</svg>
